<svg aria-hidden="true" style="position: absolute; width: 0; height: 0; overflow: hidden;" version="1.1" xmlns="http://www.w3.org/2000/svg" xmlns:xlink="http://www.w3.org/1999/xlink">
<defs>
<symbol id="icon-add" viewBox="0 0 32 32">
<path d="M28 14h-10v-10c0-1.104-0.896-2-2-2s-2 0.896-2 2v10h-10c-1.104 0-2 0.896-2 2s0.896 2 2 2h10v10c0 1.104 0.896 2 2 2s2-0.896 2-2v-10h10c1.104 0 2-0.896 2-2s-0.896-2-2-2z"></path>
</symbol>
<symbol id="icon-close" viewBox="0 0 32 32">
<path d="M27.725 24.194l-8.2-8.231 8.219-8.125c0.337-0.338 0.337-0.888 0-1.225l-2.337-2.35c-0.163-0.162-0.381-0.25-0.613-0.25s-0.45 0.094-0.613 0.25l-8.181 8.1-8.194-8.094c-0.162-0.162-0.381-0.25-0.612-0.25s-0.45 0.094-0.612 0.25l-2.331 2.35c-0.337 0.338-0.337 0.888 0 1.225l8.219 8.125-8.194 8.225c-0.162 0.163-0.256 0.381-0.256 0.613s0.088 0.45 0.256 0.613l2.338 2.35c0.169 0.169 0.388 0.256 0.612 0.256 0.219 0 0.444-0.081 0.612-0.256l8.162-8.2 8.169 8.194c0.169 0.169 0.387 0.256 0.613 0.256 0.219 0 0.444-0.081 0.613-0.256l2.337-2.35c0.163-0.163 0.256-0.381 0.256-0.613-0.006-0.225-0.1-0.444-0.262-0.606z"></path>
</symbol>
<symbol id="icon-search" viewBox="0 0 32 32">
<path d="M21.531 18.625c0.938-1.475 1.488-3.225 1.488-5.106 0-5.256-4.256-9.519-9.506-9.519-5.256 0-9.512 4.262-9.512 9.519s4.256 9.519 9.506 9.519c1.906 0 3.681-0.563 5.169-1.525l0.431-0.3 6.787 6.787 2.106-2.144-6.781-6.787 0.313-0.444zM18.837 8.2c1.419 1.419 2.2 3.306 2.2 5.313s-0.781 3.894-2.2 5.313c-1.419 1.419-3.306 2.2-5.313 2.2s-3.894-0.781-5.313-2.2c-1.419-1.419-2.2-3.306-2.2-5.313s0.781-3.894 2.2-5.313c1.419-1.419 3.306-2.2 5.313-2.2s3.894 0.781 5.313 2.2z"></path>
</symbol>
</defs>
</svg>
