<svg aria-hidden="true" style="position: absolute; width: 0; height: 0; overflow: hidden;" version="1.1" xmlns="http://www.w3.org/2000/svg" xmlns:xlink="http://www.w3.org/1999/xlink">
<defs>
<symbol id="icon-cloud-sun" viewBox="0 0 32 32">
<path fill="none" stroke="#ffa500" style="stroke: var(--color1, #ffa500)" stroke-linejoin="miter" stroke-linecap="round" stroke-miterlimit="4" stroke-width="1" d="M10 17.5v1.5"></path>
<path fill="none" stroke="#ffa500" style="stroke: var(--color1, #ffa500)" stroke-linejoin="miter" stroke-linecap="round" stroke-miterlimit="4" stroke-width="1" d="M6.818 16.182l-1.061 1.061"></path>
<path fill="none" stroke="#ffa500" style="stroke: var(--color1, #ffa500)" stroke-linejoin="miter" stroke-linecap="round" stroke-miterlimit="4" stroke-width="1" d="M5.5 13h-1.5"></path>
<path fill="none" stroke="#ffa500" style="stroke: var(--color1, #ffa500)" stroke-linejoin="miter" stroke-linecap="round" stroke-miterlimit="4" stroke-width="1" d="M6.818 9.818l-1.061-1.061"></path>
<path fill="none" stroke="#ffa500" style="stroke: var(--color1, #ffa500)" stroke-linejoin="miter" stroke-linecap="round" stroke-miterlimit="4" stroke-width="1" d="M10 8.5v-1.5"></path>
<path fill="none" stroke="#ffa500" style="stroke: var(--color1, #ffa500)" stroke-linejoin="miter" stroke-linecap="round" stroke-miterlimit="4" stroke-width="1" d="M13.182 9.818l1.061-1.061"></path>
<path fill="none" stroke="#ffa500" style="stroke: var(--color1, #ffa500)" stroke-linejoin="miter" stroke-linecap="round" stroke-miterlimit="4" stroke-width="1" d="M14.5 13h1.5"></path>
<path fill="none" stroke="#ffa500" style="stroke: var(--color1, #ffa500)" stroke-linejoin="miter" stroke-linecap="round" stroke-miterlimit="4" stroke-width="1" d="M13.182 16.182l1.061 1.061"></path>
<path fill="#ffa500" style="fill: var(--color1, #ffa500); stroke: var(--color1, #ffa500)" stroke="#ffa500" stroke-linejoin="miter" stroke-linecap="butt" stroke-miterlimit="4" stroke-width="1" d="M12.5 13c0 1.381-1.119 2.5-2.5 2.5s-2.5-1.119-2.5-2.5c0-1.381 1.119-2.5 2.5-2.5s2.5 1.119 2.5 2.5z"></path>
<path fill="#c6deff" style="fill: var(--color2, #c6deff); stroke: var(--color3, #fff)" stroke="#fff" stroke-linejoin="round" stroke-linecap="butt" stroke-miterlimit="4" stroke-width="0.6" d="M23.85 17.2c0-2.3-1.85-4.1-4.1-4.1-0.5 0-0.95 0.1-1.4 0.25-0.15-1.7-1.55-3.1-3.3-3.1-1.85 0-3.35 1.5-3.35 3.35 0 0.4 0.1 0.8 0.2 1.15-0.15-0.050-0.35-0.050-0.5-0.050-1.85 0-3.35 1.5-3.35 3.35 0 1.8 1.45 3.3 3.25 3.35h8.6c2.2-0.25 3.95-2 3.95-4.2z"></path>
</symbol>
<symbol id="icon-cloud" viewBox="0 0 32 32">
<path fill="#91c0f8" style="fill: var(--color4, #91c0f8); stroke: var(--color3, #fff)" stroke="#fff" stroke-linejoin="round" stroke-linecap="butt" stroke-miterlimit="4" stroke-width="0.6" d="M19.31 11.62c0-1.38-1.11-2.46-2.46-2.46-0.3 0-0.57 0.060-0.84 0.15-0.090-1.020-0.93-1.86-1.98-1.86-1.11 0-2.010 0.9-2.010 2.010 0 0.24 0.060 0.48 0.12 0.69-0.090-0.030-0.21-0.030-0.3-0.030-1.11 0-2.010 0.9-2.010 2.010 0 1.080 0.87 1.98 1.95 2.010h5.16c1.32-0.15 2.37-1.2 2.37-2.52z"></path>
<path fill="#57a0ee" style="fill: var(--color5, #57a0ee); stroke: var(--color3, #fff)" stroke="#fff" stroke-linejoin="round" stroke-linecap="butt" stroke-miterlimit="4" stroke-width="0.6" d="M23.85 17.2c0-2.3-1.85-4.1-4.1-4.1-0.5 0-0.95 0.1-1.4 0.25-0.15-1.7-1.55-3.1-3.3-3.1-1.85 0-3.35 1.5-3.35 3.35 0 0.4 0.1 0.8 0.2 1.15-0.15-0.050-0.35-0.050-0.5-0.050-1.85 0-3.35 1.5-3.35 3.35 0 1.8 1.45 3.3 3.25 3.35h8.6c2.2-0.25 3.95-2 3.95-4.2z"></path>
</symbol>
<symbol id="icon-sun" viewBox="0 0 32 32">
<path fill="none" stroke="#ffa500" style="stroke: var(--color1, #ffa500)" stroke-linejoin="miter" stroke-linecap="round" stroke-miterlimit="4" stroke-width="1" d="M16 20.5v1.5"></path>
<path fill="none" stroke="#ffa500" style="stroke: var(--color1, #ffa500)" stroke-linejoin="miter" stroke-linecap="round" stroke-miterlimit="4" stroke-width="1" d="M12.818 19.182l-1.061 1.061"></path>
<path fill="none" stroke="#ffa500" style="stroke: var(--color1, #ffa500)" stroke-linejoin="miter" stroke-linecap="round" stroke-miterlimit="4" stroke-width="1" d="M11.5 16h-1.5"></path>
<path fill="none" stroke="#ffa500" style="stroke: var(--color1, #ffa500)" stroke-linejoin="miter" stroke-linecap="round" stroke-miterlimit="4" stroke-width="1" d="M12.818 12.818l-1.061-1.061"></path>
<path fill="none" stroke="#ffa500" style="stroke: var(--color1, #ffa500)" stroke-linejoin="miter" stroke-linecap="round" stroke-miterlimit="4" stroke-width="1" d="M16 11.5v-1.5"></path>
<path fill="none" stroke="#ffa500" style="stroke: var(--color1, #ffa500)" stroke-linejoin="miter" stroke-linecap="round" stroke-miterlimit="4" stroke-width="1" d="M19.182 12.818l1.061-1.061"></path>
<path fill="none" stroke="#ffa500" style="stroke: var(--color1, #ffa500)" stroke-linejoin="miter" stroke-linecap="round" stroke-miterlimit="4" stroke-width="1" d="M20.5 16h1.5"></path>
<path fill="none" stroke="#ffa500" style="stroke: var(--color1, #ffa500)" stroke-linejoin="miter" stroke-linecap="round" stroke-miterlimit="4" stroke-width="1" d="M19.182 19.182l1.061 1.061"></path>
<path fill="#ffa500" style="fill: var(--color1, #ffa500); stroke: var(--color1, #ffa500)" stroke="#ffa500" stroke-linejoin="miter" stroke-linecap="butt" stroke-miterlimit="4" stroke-width="1" d="M18.5 16c0 1.381-1.119 2.5-2.5 2.5s-2.5-1.119-2.5-2.5c0-1.381 1.119-2.5 2.5-2.5s2.5 1.119 2.5 2.5z"></path>
</symbol>
<symbol id="icon-left-arrow" viewBox="0 0 32 32">
<path d="M21.772 2.425l2.031 2.031-11.544 11.544 11.544 11.542-2.031 2.033-13.575-13.575z"></path>
</symbol>
<symbol id="icon-right-arrow" viewBox="0 0 32 32">
<path d="M10.228 2.425l-2.031 2.031 11.544 11.544-11.544 11.542 2.031 2.033 13.575-13.575z"></path>
</symbol>
<symbol id="icon-rain-sun" viewBox="0 0 32 32">
<path fill="none" stroke="#ffa500" style="stroke: var(--color1, #ffa500)" stroke-linejoin="miter" stroke-linecap="round" stroke-miterlimit="4" stroke-width="1" d="M10 18.4v1.8"></path>
<path fill="none" stroke="#ffa500" style="stroke: var(--color1, #ffa500)" stroke-linejoin="miter" stroke-linecap="round" stroke-miterlimit="4" stroke-width="1" d="M6.182 16.818l-1.273 1.273"></path>
<path fill="none" stroke="#ffa500" style="stroke: var(--color1, #ffa500)" stroke-linejoin="miter" stroke-linecap="round" stroke-miterlimit="4" stroke-width="1" d="M4.6 13h-1.8"></path>
<path fill="none" stroke="#ffa500" style="stroke: var(--color1, #ffa500)" stroke-linejoin="miter" stroke-linecap="round" stroke-miterlimit="4" stroke-width="1" d="M6.182 9.182l-1.273-1.273"></path>
<path fill="none" stroke="#ffa500" style="stroke: var(--color1, #ffa500)" stroke-linejoin="miter" stroke-linecap="round" stroke-miterlimit="4" stroke-width="1" d="M10 7.6v-1.8"></path>
<path fill="none" stroke="#ffa500" style="stroke: var(--color1, #ffa500)" stroke-linejoin="miter" stroke-linecap="round" stroke-miterlimit="4" stroke-width="1" d="M13.818 9.182l1.273-1.273"></path>
<path fill="none" stroke="#ffa500" style="stroke: var(--color1, #ffa500)" stroke-linejoin="miter" stroke-linecap="round" stroke-miterlimit="4" stroke-width="1" d="M15.4 13h1.8"></path>
<path fill="none" stroke="#ffa500" style="stroke: var(--color1, #ffa500)" stroke-linejoin="miter" stroke-linecap="round" stroke-miterlimit="4" stroke-width="1" d="M13.818 16.818l1.273 1.273"></path>
<path fill="#ffa500" style="fill: var(--color1, #ffa500); stroke: var(--color1, #ffa500)" stroke="#ffa500" stroke-linejoin="miter" stroke-linecap="butt" stroke-miterlimit="4" stroke-width="1" d="M13 13c0 1.657-1.343 3-3 3s-3-1.343-3-3c0-1.657 1.343-3 3-3s3 1.343 3 3z"></path>
<path fill="#57a0ee" style="fill: var(--color5, #57a0ee); stroke: var(--color3, #fff)" stroke="#fff" stroke-linejoin="round" stroke-linecap="butt" stroke-miterlimit="4" stroke-width="0.75" d="M22.773 17.545c0-1.955-1.573-3.485-3.485-3.485-0.425 0-0.808 0.085-1.19 0.213-0.128-1.445-1.317-2.635-2.805-2.635-1.572 0-2.848 1.275-2.848 2.848 0 0.34 0.085 0.68 0.17 0.977-0.127-0.043-0.297-0.043-0.425-0.043-1.572 0-2.848 1.275-2.848 2.848 0 1.53 1.232 2.805 2.763 2.848h7.31c1.87-0.212 3.358-1.7 3.358-3.57z"></path>
<path fill="none" stroke="#91c0f8" style="stroke: var(--color4, #91c0f8)" stroke-linejoin="miter" stroke-linecap="round" stroke-miterlimit="4" stroke-width="1" d="M13.959 22.971l-0.695 3.939"></path>
<path fill="none" stroke="#91c0f8" style="stroke: var(--color4, #91c0f8)" stroke-linejoin="miter" stroke-linecap="round" stroke-miterlimit="4" stroke-width="1" d="M17.087 22.508l-0.695 3.939"></path>
</symbol>
<symbol id="icon-rain" viewBox="0 0 32 32">
<path fill="#57a0ee" style="fill: var(--color5, #57a0ee); stroke: var(--color3, #fff)" stroke="#fff" stroke-linejoin="round" stroke-linecap="butt" stroke-miterlimit="4" stroke-width="0.6" d="M23.85 17.2c0-2.3-1.85-4.1-4.1-4.1-0.5 0-0.95 0.1-1.4 0.25-0.15-1.7-1.55-3.1-3.3-3.1-1.85 0-3.35 1.5-3.35 3.35 0 0.4 0.1 0.8 0.2 1.15-0.15-0.050-0.35-0.050-0.5-0.050-1.85 0-3.35 1.5-3.35 3.35 0 1.8 1.45 3.3 3.25 3.35h8.6c2.2-0.25 3.95-2 3.95-4.2z"></path>
<path fill="none" stroke="#91c0f8" style="stroke: var(--color4, #91c0f8)" stroke-linejoin="miter" stroke-linecap="round" stroke-miterlimit="4" stroke-width="1" d="M13.444 23.145l-0.695 3.939"></path>
<path fill="none" stroke="#91c0f8" style="stroke: var(--color4, #91c0f8)" stroke-linejoin="miter" stroke-linecap="round" stroke-miterlimit="4" stroke-width="1" d="M15.587 22.508l-0.695 3.939"></path>
<path fill="none" stroke="#91c0f8" style="stroke: var(--color4, #91c0f8)" stroke-linejoin="miter" stroke-linecap="round" stroke-miterlimit="4" stroke-width="1" d="M17.47 23.347l-0.695 3.939"></path>
</symbol>
<symbol id="icon-snowy-6" viewBox="0 0 32 32">
<path fill="#57a0ee" style="fill: var(--color5, #57a0ee); stroke: var(--color3, #fff)" stroke="#fff" stroke-linejoin="round" stroke-linecap="butt" stroke-miterlimit="4" stroke-width="0.6" d="M23.85 17.2c0-2.3-1.85-4.1-4.1-4.1-0.5 0-0.95 0.1-1.4 0.25-0.15-1.7-1.55-3.1-3.3-3.1-1.85 0-3.35 1.5-3.35 3.35 0 0.4 0.1 0.8 0.2 1.15-0.15-0.050-0.35-0.050-0.5-0.050-1.85 0-3.35 1.5-3.35 3.35 0 1.8 1.45 3.3 3.25 3.35h8.6c2.2-0.25 3.95-2 3.95-4.2z"></path>
<path fill="none" stroke="#57a0ee" style="stroke: var(--color5, #57a0ee)" stroke-linejoin="miter" stroke-linecap="round" stroke-miterlimit="4" stroke-width="0.6" d="M11.5 22.25v2.5"></path>
<path fill="none" stroke="#57a0ee" style="stroke: var(--color5, #57a0ee)" stroke-linejoin="miter" stroke-linecap="round" stroke-miterlimit="4" stroke-width="0.5" d="M12.384 22.616l-1.768 1.768"></path>
<path fill="none" stroke="#57a0ee" style="stroke: var(--color5, #57a0ee)" stroke-linejoin="miter" stroke-linecap="round" stroke-miterlimit="4" stroke-width="0.5" d="M12.75 23.5h-2.5"></path>
<path fill="none" stroke="#57a0ee" style="stroke: var(--color5, #57a0ee)" stroke-linejoin="miter" stroke-linecap="round" stroke-miterlimit="4" stroke-width="0.5" d="M12.384 24.384l-1.768-1.768"></path>
<path fill="none" stroke="#57a0ee" style="stroke: var(--color5, #57a0ee)" stroke-linejoin="miter" stroke-linecap="round" stroke-miterlimit="4" stroke-width="0.6" d="M15.5 22.25v2.5"></path>
<path fill="none" stroke="#57a0ee" style="stroke: var(--color5, #57a0ee)" stroke-linejoin="miter" stroke-linecap="round" stroke-miterlimit="4" stroke-width="0.5" d="M16.384 22.616l-1.768 1.768"></path>
<path fill="none" stroke="#57a0ee" style="stroke: var(--color5, #57a0ee)" stroke-linejoin="miter" stroke-linecap="round" stroke-miterlimit="4" stroke-width="0.5" d="M16.75 23.5h-2.5"></path>
<path fill="none" stroke="#57a0ee" style="stroke: var(--color5, #57a0ee)" stroke-linejoin="miter" stroke-linecap="round" stroke-miterlimit="4" stroke-width="0.5" d="M16.384 24.384l-1.768-1.768"></path>
<path fill="none" stroke="#57a0ee" style="stroke: var(--color5, #57a0ee)" stroke-linejoin="miter" stroke-linecap="round" stroke-miterlimit="4" stroke-width="0.6" d="M20 22.25v2.5"></path>
<path fill="none" stroke="#57a0ee" style="stroke: var(--color5, #57a0ee)" stroke-linejoin="miter" stroke-linecap="round" stroke-miterlimit="4" stroke-width="0.5" d="M20.884 22.616l-1.768 1.768"></path>
<path fill="none" stroke="#57a0ee" style="stroke: var(--color5, #57a0ee)" stroke-linejoin="miter" stroke-linecap="round" stroke-miterlimit="4" stroke-width="0.5" d="M21.25 23.5h-2.5"></path>
<path fill="none" stroke="#57a0ee" style="stroke: var(--color5, #57a0ee)" stroke-linejoin="miter" stroke-linecap="round" stroke-miterlimit="4" stroke-width="0.5" d="M20.884 24.384l-1.768-1.768"></path>
</symbol>
<symbol id="icon-thunder" viewBox="0 0 32 32">
<path fill="#91c0f8" style="fill: var(--color4, #91c0f8); stroke: var(--color3, #fff)" stroke="#fff" stroke-linejoin="round" stroke-linecap="butt" stroke-miterlimit="4" stroke-width="0.6" d="M19.31 12.62c0-1.38-1.11-2.46-2.46-2.46-0.3 0-0.57 0.060-0.84 0.15-0.090-1.020-0.93-1.86-1.98-1.86-1.11 0-2.010 0.9-2.010 2.010 0 0.24 0.060 0.48 0.12 0.69-0.090-0.030-0.21-0.030-0.3-0.030-1.11 0-2.010 0.9-2.010 2.010 0 1.080 0.87 1.98 1.95 2.010h5.16c1.32-0.15 2.37-1.2 2.37-2.52z"></path>
<path fill="#57a0ee" style="fill: var(--color5, #57a0ee); stroke: var(--color3, #fff)" stroke="#fff" stroke-linejoin="round" stroke-linecap="butt" stroke-miterlimit="4" stroke-width="0.6" d="M23.85 17.2c0-2.3-1.85-4.1-4.1-4.1-0.5 0-0.95 0.1-1.4 0.25-0.15-1.7-1.55-3.1-3.3-3.1-1.85 0-3.35 1.5-3.35 3.35 0 0.4 0.1 0.8 0.2 1.15-0.15-0.050-0.35-0.050-0.5-0.050-1.85 0-3.35 1.5-3.35 3.35 0 1.8 1.45 3.3 3.25 3.35h8.6c2.2-0.25 3.95-2 3.95-4.2z"></path>
<path fill="#ffa500" style="fill: var(--color1, #ffa500); stroke: var(--color3, #fff)" stroke="#fff" stroke-linejoin="miter" stroke-linecap="butt" stroke-miterlimit="4" stroke-width="0.5" d="M14.080 17.26h3.72l-2.46 4.32h2.34l-5.28 6.18 2.040-4.62h-2.28z"></path>
</symbol>
<symbol id="icon-close" viewBox="0 0 32 32">
<path d="M27.725 24.194l-8.2-8.231 8.219-8.125c0.337-0.338 0.337-0.888 0-1.225l-2.337-2.35c-0.163-0.162-0.381-0.25-0.613-0.25s-0.45 0.094-0.613 0.25l-8.181 8.1-8.194-8.094c-0.162-0.162-0.381-0.25-0.612-0.25s-0.45 0.094-0.612 0.25l-2.331 2.35c-0.337 0.338-0.337 0.888 0 1.225l8.219 8.125-8.194 8.225c-0.162 0.163-0.256 0.381-0.256 0.613s0.088 0.45 0.256 0.613l2.338 2.35c0.169 0.169 0.388 0.256 0.612 0.256 0.219 0 0.444-0.081 0.612-0.256l8.162-8.2 8.169 8.194c0.169 0.169 0.387 0.256 0.613 0.256 0.219 0 0.444-0.081 0.613-0.256l2.337-2.35c0.163-0.163 0.256-0.381 0.256-0.613-0.006-0.225-0.1-0.444-0.262-0.606z"></path>
</symbol>
<symbol id="icon-search" viewBox="0 0 32 32">
<path d="M21.531 18.625c0.938-1.475 1.488-3.225 1.488-5.106 0-5.256-4.256-9.519-9.506-9.519-5.256 0-9.512 4.262-9.512 9.519s4.256 9.519 9.506 9.519c1.906 0 3.681-0.563 5.169-1.525l0.431-0.3 6.787 6.787 2.106-2.144-6.781-6.787 0.313-0.444zM18.837 8.2c1.419 1.419 2.2 3.306 2.2 5.313s-0.781 3.894-2.2 5.313c-1.419 1.419-3.306 2.2-5.313 2.2s-3.894-0.781-5.313-2.2c-1.419-1.419-2.2-3.306-2.2-5.313s0.781-3.894 2.2-5.313c1.419-1.419 3.306-2.2 5.313-2.2s3.894 0.781 5.313 2.2z"></path>
</symbol>
</defs>
</svg>
